<?xml version="1.0" encoding="UTF-8" standalone="no"?><!DOCTYPE svg PUBLIC "-//W3C//DTD SVG 1.1//EN" "http://www.w3.org/Graphics/SVG/1.1/DTD/svg11.dtd"><svg width="100%" height="100%" viewBox="0 0 956 456" version="1.1" xmlns="http://www.w3.org/2000/svg" xmlns:xlink="http://www.w3.org/1999/xlink" xml:space="preserve" xmlns:serif="http://www.serif.com/" style="fill-rule:evenodd;clip-rule:evenodd;stroke-linejoin:round;stroke-miterlimit:1.41421;"><rect id="Artboard1" x="0" y="0" width="955.713" height="455.155" style="fill:none;"/><clipPath id="_clip1"><rect x="0" y="0" width="955.713" height="455.155"/></clipPath><g clip-path="url(#_clip1)"><g><path d="M206.787,284.776c0,-14.206 -7.254,-25.087 -22.065,-33.248c-12.392,-6.649 -25.993,-9.974 -41.408,-9.974c-17.228,0 -36.27,1.814 -57.427,5.743c-21.158,3.929 -39.595,8.765 -55.01,14.81c-7.556,3.023 -14.508,9.672 -20.855,19.949c-6.347,10.276 -9.369,19.646 -9.369,28.411c0,7.254 3.022,10.881 8.765,10.881c3.324,-0.605 6.045,-1.209 8.765,-2.116c5.138,-1.813 11.183,-3.929 17.833,-6.649l16.321,-4.534l7.254,-1.511c3.325,-0.907 5.138,-1.814 5.138,-3.325c0,-2.418 -1.511,-4.836 -4.231,-7.254c36.572,-14.206 65.286,-21.157 86.443,-21.157c8.463,0 16.019,1.209 22.367,3.324c9.369,3.023 13.903,7.859 13.903,14.508c0,9.37 -10.276,17.531 -30.829,24.482c-12.997,4.534 -26.9,7.859 -42.013,9.975c12.997,-20.855 19.646,-33.55 19.646,-38.386c-16.926,0 -33.247,10.881 -48.662,32.945c-4.836,6.952 -7.858,10.881 -9.37,11.788c-30.829,2.418 -46.244,7.556 -46.244,15.717c0,3.627 3.929,6.649 12.09,9.067c6.045,1.814 11.486,2.721 16.624,2.721l-16.624,33.247c-2.72,5.743 -4.231,11.788 -4.231,18.74c0,12.392 6.649,22.064 19.646,29.016c10.579,5.742 22.669,8.765 36.27,8.765c30.829,0 58.334,-8.765 82.816,-26.598c14.206,-10.277 21.158,-20.251 21.158,-30.225c0,-14.206 -13.904,-25.087 -42.013,-33.248c-16.019,-4.533 -35.665,-7.858 -58.334,-9.672l4.534,-6.347c30.527,-5.743 52.591,-11.183 66.192,-16.321c28.714,-11.184 42.92,-25.691 42.92,-43.524Zm-46.849,100.347c0,2.418 -0.907,4.836 -2.72,6.951c-12.997,15.415 -35.363,24.18 -56.219,24.18c-6.347,0 -13.601,-1.209 -21.459,-3.627c-10.277,-3.324 -15.415,-7.254 -15.415,-11.787c0,-4.534 0.907,-8.463 3.022,-11.486l16.322,-23.878c11.788,0 25.993,1.512 42.315,4.232c22.669,3.929 34.154,9.067 34.154,15.415Z" style="fill:#fff;fill-rule:nonzero;"/><path d="M312.574,392.074c-16.321,18.135 -28.109,27.203 -35.061,27.203c-4.836,0 -8.463,-3.023 -10.881,-8.765c0,-9.975 3.023,-18.74 9.068,-25.994c0.906,-0.907 3.627,-3.929 7.858,-9.067c5.138,-6.045 7.556,-9.37 7.254,-9.975c-2.72,-16.623 -7.858,-24.784 -15.415,-24.784c-5.742,0 -19.646,1.813 -41.106,5.138c0.605,-1.511 0.907,-3.325 0.907,-5.44c0,-5.139 -2.116,-7.859 -6.045,-7.859l-5.44,0.907c-16.02,10.579 -23.878,23.273 -23.878,38.083c0,8.161 3.627,12.393 10.579,12.393c-5.441,9.974 -10.579,17.53 -15.113,22.064l3.627,12.694c15.415,-16.623 24.785,-28.713 28.109,-36.572c6.348,-1.511 16.02,-3.929 29.016,-6.649l0.605,0.604c-11.183,17.228 -16.926,30.83 -16.926,40.804c0,8.161 2.418,15.415 6.952,21.762c5.138,6.952 11.485,10.276 19.344,10.276c6.951,0 16.321,-6.045 28.411,-18.437c8.765,-8.765 16.321,-17.833 22.669,-27.202l-4.534,-11.184Z" style="fill:#fff;fill-rule:nonzero;"/><path d="M426.22,389.354c-8.161,10.277 -15.717,15.717 -22.367,16.624l-3.929,-0.605c3.325,-8.765 5.138,-16.926 5.138,-24.482c0,-17.228 -5.138,-26.296 -15.112,-27.505c2.72,-2.115 3.929,-4.836 3.929,-7.556c0,-7.556 -6.347,-11.183 -18.739,-11.183c-16.624,0 -31.737,5.44 -45.338,16.624c-14.206,11.787 -21.157,25.691 -21.157,42.315c0,12.694 3.929,24.482 11.787,35.665c8.766,12.392 19.344,18.437 31.434,18.437c14.206,0 26.901,-7.254 38.386,-21.459c19.344,0 33.55,-8.161 42.315,-24.18l-6.347,-12.695Zm-55.916,25.389c-6.952,8.161 -14.206,12.392 -21.762,12.392c-8.463,0 -15.113,-7.858 -15.113,-16.321c0,-9.974 2.116,-17.228 6.65,-22.367c6.045,-6.951 15.414,-13.903 27.807,-21.459c-3.93,10.578 -5.743,19.948 -5.743,28.713c0,6.348 2.72,12.695 8.161,19.042Z" style="fill:#fff;fill-rule:nonzero;"/><path d="M512.965,394.19l-31.131,26.9c-3.93,3.325 -8.161,5.139 -12.09,5.139c-5.139,0 -9.068,-3.627 -11.788,-10.579l0,-2.72c-0.302,-0.907 -0.302,-1.814 -0.302,-2.418c0,-16.02 5.138,-32.946 15.717,-50.778c6.649,-0.303 11.485,-0.303 14.81,0c8.765,-0.907 14.81,-5.441 18.739,-13.299c0.605,-1.209 3.023,-9.068 7.254,-23.878l-19.041,-1.209c4.836,-7.556 7.254,-13.601 7.254,-17.53c0,-4.836 -3.023,-7.254 -9.37,-7.254c-7.556,0 -13.299,2.72 -17.833,7.858c-2.72,3.325 -5.743,9.37 -9.067,18.135l-18.74,1.813c-6.951,0.605 -12.694,5.139 -17.53,13.904c-4.534,9.37 -7.556,16.926 -9.37,22.064c4.534,-1.511 9.068,-2.116 14.206,-2.116l13.601,0c-3.929,10.277 -8.765,19.042 -14.206,25.994c-3.929,5.138 -10.881,12.392 -20.553,21.762l6.045,11.485l12.393,-12.09l0.906,0.605c-2.115,8.463 -3.022,14.508 -3.022,18.437c0,7.254 1.511,13.904 4.836,19.949c3.929,7.254 9.37,10.881 15.717,10.881c11.787,0 24.18,-5.743 37.781,-16.926c6.952,-5.743 16.926,-16.02 29.923,-30.83l-5.139,-13.299Z" style="fill:#fff;fill-rule:nonzero;"/><path d="M643.537,397.213c-16.624,14.81 -29.016,22.064 -37.176,22.064c-1.512,0 -3.325,-1.511 -5.441,-4.534c0,-5.743 3.627,-14.81 10.881,-26.598c7.556,-11.788 11.183,-19.344 11.183,-22.064c0,-7.254 -9.672,-15.717 -16.926,-15.717c-7.858,0 -20.25,8.463 -37.479,25.389l-33.852,33.55l-2.418,-10.881c30.225,-42.013 45.942,-63.775 47.454,-65.589c23.273,-33.549 21.899,-29.399 21.899,-41.791c0,-6.952 -4.263,-8.434 -12.424,-8.434c-5.742,0 -18.711,7.599 -22.338,11.529l-4.768,3.365c-11.485,12.997 -13.803,11.756 -26.8,35.029c-14.81,26.9 -22.367,47.151 -22.367,60.148c0,9.37 1.209,19.344 3.93,29.923c3.627,14.81 8.463,22.064 14.81,22.064c2.72,0 6.347,-3.023 10.579,-9.068c11.787,-16.623 19.344,-26.9 22.668,-31.131c9.975,-12.09 19.344,-20.856 28.11,-25.994l-12.09,22.971c-4.534,8.765 -6.65,17.228 -6.65,24.785c0,5.742 1.209,10.578 3.627,14.81c2.72,5.138 6.952,7.858 12.09,7.858c12.09,0 31.434,-12.996 58.032,-38.99l-4.534,-12.694Z" style="fill:#fff;fill-rule:nonzero;"/><path d="M747.813,390.865c-22.668,23.274 -40.501,34.759 -53.498,34.759c-4.836,0 -9.37,-1.209 -13.903,-3.929c-5.441,-3.023 -8.161,-6.65 -8.161,-11.183c0,-0.907 0,-2.116 0.302,-3.627l0,-3.627c39.293,-15.415 58.939,-31.737 58.939,-48.663c0,-13.601 -8.765,-20.25 -26.598,-20.25c-17.228,0 -31.736,6.649 -44.129,20.25c-12.09,13.602 -18.135,29.016 -18.135,46.245c0,12.996 3.93,24.18 11.486,34.154c8.161,10.881 18.739,16.321 31.132,16.321c12.09,0 25.086,-5.44 38.688,-16.623c11.183,-8.766 20.855,-19.647 29.016,-32.039l-5.139,-11.788Zm-41.71,-37.176c0,7.254 -4.232,14.508 -12.997,21.762c-6.347,5.138 -13.903,9.974 -22.971,13.903c2.116,-8.463 6.045,-16.624 12.09,-24.18c7.254,-9.067 14.81,-13.601 22.669,-13.601l0.604,0.604l0.605,1.512Z" style="fill:#fff;fill-rule:nonzero;"/><path d="M850.578,392.074c-16.321,18.135 -28.109,27.203 -35.061,27.203c-4.836,0 -8.463,-3.023 -10.881,-8.765c0,-9.975 3.023,-18.74 9.068,-25.994c0.906,-0.907 3.627,-3.929 7.858,-9.067c5.138,-6.045 7.556,-9.37 7.254,-9.975c-2.72,-16.623 -7.858,-24.784 -15.415,-24.784c-5.742,0 -19.646,1.813 -41.106,5.138c0.605,-1.511 0.907,-3.325 0.907,-5.44c0,-5.139 -2.116,-7.859 -6.045,-7.859l-5.44,0.907c-16.019,10.579 -23.878,23.273 -23.878,38.083c0,8.161 3.627,12.393 10.579,12.393c-5.441,9.974 -10.579,17.53 -15.113,22.064l3.627,12.694c15.415,-16.623 24.785,-28.713 28.109,-36.572c6.348,-1.511 16.02,-3.929 29.016,-6.649l0.605,0.604c-11.183,17.228 -16.926,30.83 -16.926,40.804c0,8.161 2.418,15.415 6.952,21.762c5.138,6.952 11.485,10.276 19.344,10.276c6.951,0 16.321,-6.045 28.411,-18.437c8.765,-8.765 16.322,-17.833 22.669,-27.202l-4.534,-11.184Z" style="fill:#fff;fill-rule:nonzero;"/><path d="M951.529,394.795l-21.459,20.553c-9.068,7.254 -18.135,10.881 -27.203,10.881c-1.511,0 -5.44,-0.605 -6.951,-0.605c18.437,-12.997 27.504,-27.505 27.504,-43.524c0,-6.952 -1.813,-14.81 -5.44,-23.878l-9.068,-22.971c-1.511,-5.742 -5.742,-8.463 -12.09,-8.463c-7.556,0 -13.903,5.743 -13.903,13.299c0,0.907 0.302,2.721 0.604,5.139l-52.893,60.752c-2.116,2.116 -3.023,4.836 -3.023,7.556c0,5.138 1.814,7.556 5.441,7.556c0.906,0 2.72,-1.209 6.045,-3.627c4.533,9.672 12.392,17.531 22.971,23.878c10.578,6.347 21.459,9.37 32.34,9.37c16.926,0 37.479,-14.508 61.961,-43.826l-4.836,-12.09Zm-55.009,-0.605c0,10.277 -5.743,18.74 -17.228,25.087l-11.486,-11.788c-3.627,-2.72 -8.765,-4.534 -15.112,-5.44c3.929,-3.93 9.672,-10.579 16.926,-20.251c6.952,-9.068 12.997,-15.717 17.53,-19.646c6.348,14.81 9.37,25.691 9.37,32.038Z" style="fill:#fff;fill-rule:nonzero;"/><path d="M455.161,146.94c-11.917,-5.766 -29.601,-8.842 -53.82,-8.842l44.594,-74.194c4.613,-7.688 6.919,-14.992 6.919,-21.528c0,-7.304 -3.844,-18.068 -9.61,-18.068c-4.998,0 -17.299,17.3 -37.674,51.898c-11.533,20.374 -23.065,40.749 -34.214,61.124l-55.741,6.535l45.746,-63.815c7.304,-9.995 10.764,-20.759 10.764,-32.676c0,-26.525 -16.915,-47.284 -43.056,-47.284c-47.668,0 -98.797,11.917 -153.385,35.367c-19.606,8.457 -33.445,15.377 -40.749,21.143c-2.691,1.922 -4.998,6.151 -6.92,12.686c-2.307,6.151 -3.46,11.149 -3.46,14.993c0,24.603 5.382,36.905 16.146,36.905c3.46,0 8.842,-1.922 16.53,-5.767c15.377,-9.995 27.679,-16.914 37.29,-20.374c9.61,-4.998 14.223,-8.458 14.223,-10.764c0,-3.46 -2.306,-5.767 -7.304,-6.151c59.202,-27.294 99.182,-41.134 120.325,-41.134c9.611,0 14.609,4.614 14.609,13.84c0,4.997 -6.151,16.146 -18.068,33.445l-48.054,68.812c-30.369,6.535 -50.359,11.533 -59.97,14.608c-1.922,-1.922 -4.229,-2.691 -7.304,-2.691c-9.226,0 -16.146,13.071 -16.146,22.681c0,14.224 9.226,21.144 27.679,21.144c3.46,0 8.841,-0.385 15.377,-1.538l-21.528,36.905c-1.153,1.922 -1.538,4.997 -1.538,9.995c0,3.46 2.307,6.919 6.92,10.764c4.613,3.844 8.457,5.766 11.917,5.766c9.995,0 16.53,-7.304 19.99,-22.297l29.216,-44.593l66.506,-9.995c-6.92,22.297 -10.379,40.749 -10.379,54.973c0,13.07 4.228,19.606 13.07,19.606c3.075,0 8.842,-2.307 16.915,-6.536c8.073,-4.228 14.608,-6.15 18.837,-6.15c-4.614,-11.533 -7.689,-18.068 -9.227,-19.991c0,-8.073 1.154,-14.992 3.076,-21.143c1.153,-3.46 3.844,-9.995 8.457,-19.99l15.377,0c7.689,0 15.377,1.153 23.066,3.075c8.457,-19.605 19.99,-36.52 34.598,-50.744Z" style="fill:#fff;fill-rule:nonzero;"/><path d="M638.916,196.147c-21.528,20.759 -37.673,31.138 -48.822,31.138c-6.151,0 -11.532,-6.151 -11.532,-12.302c0,-6.15 3.459,-14.992 9.995,-26.525c6.919,-11.917 10.379,-19.99 10.379,-24.219c0,-8.073 -4.613,-13.839 -13.839,-18.068c6.919,-2.306 10.379,-4.997 10.379,-8.073c0,-5.382 -3.46,-9.995 -9.995,-14.223c-5.766,-3.46 -11.917,-4.998 -17.683,-4.998c-22.297,0 -46.9,9.226 -74.195,27.294c-29.6,19.99 -44.593,40.365 -44.593,61.508c0,9.611 5.382,20.375 15.762,33.061c10.379,12.686 20.374,18.837 29.6,18.837c8.073,-3.46 18.453,-11.533 31.523,-24.219l29.217,-28.832l0.768,0.769c-3.459,12.686 -5.382,23.45 -5.382,33.061c0,7.304 1.154,13.454 3.845,18.836c3.46,6.92 8.073,10.38 14.608,10.38c10.379,0 24.219,-7.304 41.518,-21.912c13.455,-11.533 24.987,-23.45 34.214,-35.752l-5.767,-15.761Zm-73.425,-39.596c-39.98,51.128 -65.737,76.5 -77.654,76.5c-5.766,0 -8.842,-4.997 -8.842,-14.992c0,-14.224 11.149,-27.679 33.445,-39.98c11.918,-6.536 29.601,-13.455 53.051,-21.528Z" style="fill:#fff;fill-rule:nonzero;"/><path d="M819.212,191.149c-24.219,24.219 -41.134,36.136 -50.744,36.136l-6.151,-2.307l-4.229,-5.766c-0.384,-1.153 -0.384,-3.075 -0.384,-5.382c0,-10.764 4.613,-22.297 14.223,-34.983c14.224,-18.836 21.528,-29.216 22.682,-31.138c0,-5.766 -1.154,-11.533 -3.076,-17.684c-2.691,-8.072 -6.151,-12.301 -10.379,-12.301l-1.922,0c-0.769,0.384 -1.538,0.384 -2.307,0.384c-8.457,6.535 -19.99,18.453 -34.214,35.752c-18.068,22.296 -30.369,36.52 -36.52,42.671c-14.224,14.224 -26.526,22.297 -37.674,24.219c-3.46,-3.46 -4.997,-5.767 -4.997,-6.92c0,-5.766 1.153,-11.148 3.075,-16.915c1.153,-3.459 9.226,-13.07 23.834,-28.831c13.071,-14.224 19.606,-24.988 19.606,-32.292c0,-5.767 -4.613,-8.842 -13.839,-8.842c-18.453,0 -33.445,8.457 -44.594,24.988c-10.379,14.992 -15.377,31.907 -15.377,51.128c0,18.837 4.613,33.445 14.224,43.825c7.304,8.073 14.608,11.917 22.297,11.917c8.457,0 18.068,-5.766 29.216,-17.684c5.382,-5.766 12.686,-15.377 22.297,-29.216l1.153,1.153c-1.538,6.536 -2.307,13.071 -2.307,19.606c0,24.219 10.38,36.136 31.139,36.136c10.379,0 23.45,-8.073 39.211,-24.219c5.767,-6.151 16.531,-18.452 31.523,-37.289l-5.766,-16.146Z" style="fill:#fff;fill-rule:nonzero;"/><path d="M930.311,192.302c-20.375,24.988 -38.827,37.674 -55.358,37.674c-10.379,0 -17.299,-4.613 -21.527,-14.224c-2.307,-5.382 -4.229,-14.608 -5.767,-27.294l12.302,-13.455c35.367,-43.44 53.051,-80.729 53.051,-112.636c0,-6.536 -0.769,-13.455 -2.307,-20.759c-1.922,-10.38 -4.998,-15.377 -8.842,-15.377c-4.228,0 -11.917,5.766 -22.296,17.299c-42.672,46.515 -63.815,92.646 -63.815,138.393c0,21.143 3.075,38.442 8.842,52.282c8.073,19.605 21.143,29.216 39.211,29.216c14.993,0 29.216,-6.92 43.44,-20.375c5.382,-5.381 15.762,-18.068 30.754,-38.442l-7.688,-12.302Zm-41.518,-120.325c-1.538,12.302 -6.535,26.91 -14.608,44.209c-8.073,17.299 -16.531,29.985 -25.372,38.827c1.537,-12.686 6.15,-27.679 14.223,-44.978c8.458,-18.837 16.915,-31.523 25.757,-38.058Z" style="fill:#fff;fill-rule:nonzero;"/></g></g></svg>